TITLE ""
FILE "1Q_t_0610-0619.mp3" MP3
  TRACK 01 AUDIO
    TITLE "1Q_t_0610-0619_01"
    INDEX 01 00:00:00
  TRACK 02 AUDIO
    TITLE "1Q_t_0610-0619_02"
    INDEX 01 00:01:29
  TRACK 03 AUDIO
    TITLE "1Q_t_0610-0619_03"
    INDEX 01 00:01:37
  TRACK 04 AUDIO
    TITLE "1Q_t_0610-0619_04"
    INDEX 01 00:03:01
  TRACK 05 AUDIO
    TITLE "1Q_t_0610-0619_05"
    INDEX 01 00:03:11
  TRACK 06 AUDIO
    TITLE "1Q_t_0610-0619_06"
    INDEX 01 00:07:67
  TRACK 07 AUDIO
    TITLE "1Q_t_0610-0619_07"
    INDEX 01 00:08:35
  TRACK 08 AUDIO
    TITLE "1Q_t_0610-0619_08"
    INDEX 01 00:09:60
  TRACK 09 AUDIO
    TITLE "1Q_t_0610-0619_09"
    INDEX 01 00:09:68
  TRACK 10 AUDIO
    TITLE "1Q_t_0610-0619_10"
    INDEX 01 00:13:38
  TRACK 11 AUDIO
    TITLE "1Q_t_0610-0619_11"
    INDEX 01 00:13:44
  TRACK 12 AUDIO
    TITLE "1Q_t_0610-0619_12"
    INDEX 01 00:17:52
  TRACK 13 AUDIO
    TITLE "1Q_t_0610-0619_13"
    INDEX 01 00:18:24
  TRACK 14 AUDIO
    TITLE "1Q_t_0610-0619_14"
    INDEX 01 00:19:41
  TRACK 15 AUDIO
    TITLE "1Q_t_0610-0619_15"
    INDEX 01 00:19:51
  TRACK 16 AUDIO
    TITLE "1Q_t_0610-0619_16"
    INDEX 01 00:23:29
  TRACK 17 AUDIO
    TITLE "1Q_t_0610-0619_17"
    INDEX 01 00:23:41
  TRACK 18 AUDIO
    TITLE "1Q_t_0610-0619_18"
    INDEX 01 00:27:62
  TRACK 19 AUDIO
    TITLE "1Q_t_0610-0619_19"
    INDEX 01 00:28:32
  TRACK 20 AUDIO
    TITLE "1Q_t_0610-0619_20"
    INDEX 01 00:29:55
  TRACK 21 AUDIO
    TITLE "1Q_t_0610-0619_21"
    INDEX 01 00:29:67
  TRACK 22 AUDIO
    TITLE "1Q_t_0610-0619_22"
    INDEX 01 00:32:67
  TRACK 23 AUDIO
    TITLE "1Q_t_0610-0619_23"
    INDEX 01 00:32:73
  TRACK 24 AUDIO
    TITLE "1Q_t_0610-0619_24"
    INDEX 01 00:37:23
  TRACK 25 AUDIO
    TITLE "1Q_t_0610-0619_25"
    INDEX 01 00:37:70
  TRACK 26 AUDIO
    TITLE "1Q_t_0610-0619_26"
    INDEX 01 00:39:32
  TRACK 27 AUDIO
    TITLE "1Q_t_0610-0619_27"
    INDEX 01 00:39:40
  TRACK 28 AUDIO
    TITLE "1Q_t_0610-0619_28"
    INDEX 01 00:41:46
  TRACK 29 AUDIO
    TITLE "1Q_t_0610-0619_29"
    INDEX 01 00:41:52
  TRACK 30 AUDIO
    TITLE "1Q_t_0610-0619_30"
    INDEX 01 00:44:64
  TRACK 31 AUDIO
    TITLE "1Q_t_0610-0619_31"
    INDEX 01 00:45:34
  TRACK 32 AUDIO
    TITLE "1Q_t_0610-0619_32"
    INDEX 01 00:46:46
  TRACK 33 AUDIO
    TITLE "1Q_t_0610-0619_33"
    INDEX 01 00:46:55
  TRACK 34 AUDIO
    TITLE "1Q_t_0610-0619_34"
    INDEX 01 00:50:40
  TRACK 35 AUDIO
    TITLE "1Q_t_0610-0619_35"
    INDEX 01 00:50:47
  TRACK 36 AUDIO
    TITLE "1Q_t_0610-0619_36"
    INDEX 01 00:55:41
  TRACK 37 AUDIO
    TITLE "1Q_t_0610-0619_37"
    INDEX 01 00:56:11
  TRACK 38 AUDIO
    TITLE "1Q_t_0610-0619_38"
    INDEX 01 00:57:28
  TRACK 39 AUDIO
    TITLE "1Q_t_0610-0619_39"
    INDEX 01 00:57:36
  TRACK 40 AUDIO
    TITLE "1Q_t_0610-0619_40"
    INDEX 01 00:59:11
  TRACK 41 AUDIO
    TITLE "1Q_t_0610-0619_41"
    INDEX 01 00:59:19
  TRACK 42 AUDIO
    TITLE "1Q_t_0610-0619_42"
    INDEX 01 01:04:65
  TRACK 43 AUDIO
    TITLE "1Q_t_0610-0619_43"
    INDEX 01 01:05:37
  TRACK 44 AUDIO
    TITLE "1Q_t_0610-0619_44"
    INDEX 01 01:06:66
  TRACK 45 AUDIO
    TITLE "1Q_t_0610-0619_45"
    INDEX 01 01:06:74
  TRACK 46 AUDIO
    TITLE "1Q_t_0610-0619_46"
    INDEX 01 01:08:14
  TRACK 47 AUDIO
    TITLE "1Q_t_0610-0619_47"
    INDEX 01 01:08:20
  TRACK 48 AUDIO
    TITLE "1Q_t_0610-0619_48"
    INDEX 01 01:13:03
  TRACK 49 AUDIO
    TITLE "1Q_t_0610-0619_49"
    INDEX 01 01:13:48
  TRACK 50 AUDIO
    TITLE "1Q_t_0610-0619_50"
    INDEX 01 01:14:46
  TRACK 51 AUDIO
    TITLE "1Q_t_0610-0619_51"
    INDEX 01 01:14:54
  TRACK 52 AUDIO
    TITLE "1Q_t_0610-0619_52"
    INDEX 01 01:16:17
  TRACK 53 AUDIO
    TITLE "1Q_t_0610-0619_53"
    INDEX 01 01:16:23
  TRACK 54 AUDIO
    TITLE "1Q_t_0610-0619_54"
    INDEX 01 01:20:37
  TRACK 55 AUDIO
    TITLE "1Q_t_0610-0619_55"
    INDEX 01 01:21:07
  TRACK 56 AUDIO
    TITLE "1Q_t_0610-0619_56"
    INDEX 01 01:22:24
  TRACK 57 AUDIO
    TITLE "1Q_t_0610-0619_57"
    INDEX 01 01:22:36
  TRACK 58 AUDIO
    TITLE "1Q_t_0610-0619_58"
    INDEX 01 01:25:01
  TRACK 59 AUDIO
    TITLE "1Q_t_0610-0619_59"
    INDEX 01 01:25:07
  TRACK 60 AUDIO
    TITLE "1Q_t_0610-0619_60"
    INDEX 01 01:30:23
